<?xml version="1.0" standalone="no"?>
<!DOCTYPE svg PUBLIC "-//W3C//DTD SVG 20010904//EN"
 "http://www.w3.org/TR/2001/REC-SVG-20010904/DTD/svg10.dtd">
<svg version="1.0" xmlns="http://www.w3.org/2000/svg"
 width="500.000000pt" height="500.000000pt" viewBox="0 0 500.000000 500.000000"
 preserveAspectRatio="xMidYMid meet">
<metadata>
Created by potrace 1.11, written by Peter Selinger 2001-2013
</metadata>
<g transform="translate(0.000000,500.000000) scale(0.100000,-0.100000)"
fill="#000000" stroke="none">
<path d="M2275 4079 c-155 -32 -294 -86 -387 -151 -16 -11 -28 -16 -28 -11 0
4 -4 3 -8 -3 -4 -6 -34 -33 -67 -59 -74 -60 -128 -116 -168 -175 -17 -25 -34
-46 -39 -48 -4 -2 -8 -10 -8 -18 0 -8 -8 -22 -17 -32 -15 -15 -46 -96 -68
-178 -20 -77 -22 -262 -2 -314 3 -8 5 -22 5 -30 -1 -19 42 -142 53 -154 5 -6
9 -18 9 -28 0 -12 8 -18 23 -19 12 0 427 -1 921 -1 l899 0 20 43 c10 24 23 53
28 64 21 47 33 145 33 255 0 124 -5 178 -20 215 -7 17 -13 35 -14 40 -15 68
-63 159 -130 249 -26 35 -159 166 -168 166 -5 0 -20 10 -34 23 -26 24 -178
104 -190 99 -5 -1 -8 2 -8 6 0 5 -6 9 -12 10 -7 0 -49 12 -93 26 -116 35 -134
37 -295 41 -112 2 -165 -1 -235 -16z m344 -174 c49 -6 79 -12 106 -19 74 -20
102 -30 113 -38 6 -6 12 -8 12 -5 0 19 189 -99 256 -159 55 -50 128 -155 149
-214 1 -3 4 -12 8 -20 23 -60 31 -109 33 -205 1 -60 -1 -114 -5 -120 -3 -5 -6
-16 -8 -24 -1 -8 -4 -24 -7 -36 l-5 -21 -795 0 c-622 1 -798 4 -808 14 -6 6
-9 12 -5 12 4 0 3 9 -3 20 -8 15 -8 20 1 20 8 0 8 4 0 14 -12 14 -21 186 -10
186 3 0 6 11 7 25 3 47 5 55 14 55 5 0 8 6 6 13 -3 17 24 87 35 87 4 0 6 4 3
9 -3 5 1 14 9 21 8 7 15 19 15 26 0 8 4 14 8 14 4 0 15 12 24 28 38 63 147
155 258 215 67 37 202 86 255 94 145 21 226 23 334 8z"/>
<path d="M1751 2230 c0 -300 -3 -583 -6 -630 -5 -76 -8 -104 -19 -175 -20
-132 -86 -250 -160 -290 -20 -11 -36 -24 -36 -28 0 -5 -7 -7 -15 -4 -8 4 -17
2 -20 -3 -6 -10 -91 -25 -132 -23 -22 0 -23 -3 -23 -84 l0 -85 80 4 c44 2 80
6 80 10 0 4 9 5 20 3 11 -2 20 -1 20 3 0 4 10 8 21 9 58 5 239 134 239 170 0
7 6 16 13 20 14 9 66 131 73 173 3 14 7 32 11 40 10 24 11 34 30 205 7 64 11
1209 4 1220 -3 6 -45 10 -92 10 l-87 0 -1 -545z"/>
<path d="M3022 2727 c1 -29 -2 -59 -6 -65 -4 -7 -4 -12 1 -12 4 0 8 -240 9
-533 1 -502 4 -628 18 -687 4 -14 8 -38 10 -55 2 -16 6 -37 10 -45 3 -8 7 -24
9 -35 11 -61 71 -174 119 -225 58 -61 144 -115 192 -122 11 -2 23 -6 26 -9 5
-6 64 -17 122 -22 15 -1 29 -5 33 -9 4 -3 19 -3 35 2 18 5 32 4 39 -3 8 -8 11
-8 11 2 0 7 5 9 10 6 17 -10 13 150 -4 164 -10 8 -16 9 -21 1 -3 -6 -12 -7
-18 -3 -6 4 -35 8 -63 9 -28 1 -61 7 -73 13 -11 7 -21 9 -21 6 0 -6 -53 21
-78 40 -101 76 -153 215 -168 446 -4 57 -7 348 -8 647 l0 542 -92 0 -93 0 1
-53z"/>
<path d="M2400 2760 c-13 -8 -15 -131 -15 -940 l0 -930 91 0 c65 0 93 4 96 12
2 7 3 426 3 931 -1 691 -4 920 -13 929 -9 9 -12 9 -12 0 0 -9 -5 -10 -18 -3
-10 5 -24 6 -32 1 -8 -5 -21 -5 -30 0 -9 5 -22 5 -30 0 -8 -5 -17 -5 -20 0 -3
5 -12 5 -20 0z"/>
</g>
</svg>
